<svg width="103" height="103" viewBox="0 0 103 103" fill="none" xmlns="http://www.w3.org/2000/svg">
<g filter="url(#filter0_d_89_1198)">
<circle cx="51.5217" cy="47.2565" r="40.7565" fill="url(#paint0_linear_89_1198)"/>
</g>
<path d="M31.5433 49.1152C30.7436 49.1152 30.24 48.9375 30.0327 48.582C29.8253 48.2118 29.7217 47.7156 29.7217 47.0936C29.7217 46.4568 29.7365 46.0347 29.7661 45.8274C29.7957 45.6201 29.8698 45.4053 29.9883 45.1832C30.2104 44.7685 30.7584 44.5612 31.6321 44.5612H47.0936C47.8489 44.5612 48.3228 44.4575 48.5153 44.2502C48.7226 44.028 48.8263 43.6504 48.8263 43.1172V27.1004C48.8263 26.3896 48.9966 25.9379 49.3372 25.7453C49.6927 25.5528 50.1518 25.4565 50.7145 25.4565C51.2921 25.4565 51.6994 25.4788 51.9364 25.5232C52.1733 25.5528 52.4251 25.6269 52.6917 25.7453C53.21 25.9823 53.4692 26.5821 53.4692 27.5447V42.3841C53.4692 43.5245 53.6099 44.1761 53.8912 44.339C54.1726 44.4871 54.454 44.5612 54.7354 44.5612H70.841C71.5815 44.5612 72.0554 44.7389 72.2628 45.0943C72.4701 45.4349 72.5738 46.0199 72.5738 46.8493C72.5738 47.6786 72.4479 48.2636 72.1961 48.6042C71.9592 48.9449 71.3594 49.1152 70.3967 49.1152H54.7354C53.9209 49.1152 53.4988 49.3077 53.4692 49.6928C53.4692 49.8112 53.4692 49.9593 53.4692 50.137V66.3982C53.4692 67.2275 53.2989 67.7237 52.9582 67.8866C52.4991 68.1087 51.8697 68.2198 51.07 68.2198C50.2703 68.2198 49.6927 68.1087 49.3372 67.8866C48.9966 67.6792 48.8263 67.1535 48.8263 66.3093V50.4925C48.8263 49.8409 48.73 49.4484 48.5375 49.3151C48.345 49.1818 48.0414 49.1152 47.6267 49.1152H31.5433Z" fill="white"/>
<defs>
<filter id="filter0_d_89_1198" x="0.765137" y="0.5" width="101.513" height="101.513" filterUnits="userSpaceOnUse" color-interpolation-filters="sRGB">
<feFlood flood-opacity="0" result="BackgroundImageFix"/>
<feColorMatrix in="SourceAlpha" type="matrix" values="0 0 0 0 0 0 0 0 0 0 0 0 0 0 0 0 0 0 127 0" result="hardAlpha"/>
<feOffset dy="4"/>
<feGaussianBlur stdDeviation="5"/>
<feComposite in2="hardAlpha" operator="out"/>
<feColorMatrix type="matrix" values="0 0 0 0 0 0 0 0 0 0 0 0 0 0 0 0 0 0 0.25 0"/>
<feBlend mode="normal" in2="BackgroundImageFix" result="effect1_dropShadow_89_1198"/>
<feBlend mode="normal" in="SourceGraphic" in2="effect1_dropShadow_89_1198" result="shape"/>
</filter>
<linearGradient id="paint0_linear_89_1198" x1="51.5217" y1="6.5" x2="51.5217" y2="88.013" gradientUnits="userSpaceOnUse">
<stop stop-color="#FF961C"/>
<stop offset="1" stop-color="#FFE093"/>
</linearGradient>
</defs>
</svg>
