<svg width="53" height="59" viewBox="0 0 53 59" fill="none" xmlns="http://www.w3.org/2000/svg">
<line x1="21" y1="7" x2="21" y2="43" stroke="#FF961C" stroke-width="4" stroke-linecap="round"/>
<path d="M13.4808 25.6311H4.48187C2.75172 25.6311 1.8378 23.5831 2.99332 22.2954L19.5114 3.88763C20.7366 2.52233 23 3.38897 23 5.22338V40.2678C23 40.6393 22.8965 41.0034 22.7012 41.3194L19.182 47.0125C18.1227 48.7261 15.4808 47.9754 15.4808 45.9609V27.6311C15.4808 26.5266 14.5853 25.6311 13.4808 25.6311Z" stroke="#7885C4" stroke-width="4"/>
<path d="M39.5192 33.3689L48.5181 33.3689C50.2483 33.3689 51.1622 35.4169 50.0067 36.7046L33.4885 55.1124C32.2634 56.4777 30 55.611 30 53.7766L30 18.7322C30 18.3607 30.1035 17.9966 30.2988 17.6806L33.818 11.9875C34.8773 10.2739 37.5192 11.0246 37.5192 13.0391L37.5192 31.3689C37.5192 32.4734 38.4147 33.3689 39.5192 33.3689Z" fill="#A9BCD3" stroke="#7885C4" stroke-width="4"/>
</svg>
