<svg width="56" height="50" viewBox="0 0 56 50" fill="none" xmlns="http://www.w3.org/2000/svg">
<path d="M10.1544 3.125L27.5464 23.4375L27.5465 43.75" stroke="#FF961C" stroke-width="4" stroke-linecap="round"/>
<path fill-rule="evenodd" clip-rule="evenodd" d="M2.61662 1.2123C2.95296 0.473402 3.68387 0 4.48835 0H53.9396C54.744 0 55.475 0.473402 55.8113 1.2123C56.1477 1.95121 56.0279 2.82046 55.5047 3.43832L36.2195 26.2114V47.9167C36.2195 48.6369 35.8517 49.306 35.2467 49.6861C34.6417 50.0663 33.8854 50.1035 33.2467 49.7846L23.3565 44.8464C22.6534 44.4953 22.2084 43.7712 22.2084 42.9784V26.2114L2.92323 3.43832C2.4 2.82046 2.28027 1.95121 2.61662 1.2123ZM8.96518 4.16667L25.834 24.0864C26.1536 24.4638 26.3293 24.9444 26.3293 25.4414V41.6837L32.0986 44.5643V25.4414C32.0986 24.9444 32.2743 24.4638 32.594 24.0864L49.4627 4.16667H8.96518Z" fill="#7885C4"/>
</svg>
