<svg width="71" height="75" viewBox="0 0 71 75" fill="none" xmlns="http://www.w3.org/2000/svg">
<path d="M50.0576 51.2014L36.777 71.9861" stroke="#7885C4" stroke-width="4" stroke-linecap="round"/>
<path d="M34.2231 45.1181L21.4533 64.8889" stroke="#7885C4" stroke-width="4" stroke-linecap="round"/>
<path d="M3.38471 68.0153L15.453 50.2425C15.7004 49.8781 16.0612 49.6055 16.4794 49.4672L33.4272 43.8605C33.9363 43.6921 34.4917 43.7351 34.9687 43.98L48.2327 50.789C48.7434 51.0512 49.3421 51.0812 49.8766 50.8715L65.1975 44.86C67.0081 44.1496 68.6647 46.1798 67.6055 47.811L56.5368 64.8571C56.3094 65.2074 55.9779 65.4777 55.589 65.6301L37.6171 72.6708C37.083 72.8801 36.4846 72.8499 35.9742 72.5879L22.7242 65.7861C22.2387 65.5368 21.6723 65.4968 21.1565 65.6754L5.69363 71.0288C3.87497 71.6584 2.30357 69.6075 3.38471 68.0153Z" stroke="#7885C4" stroke-width="4"/>
<path fill-rule="evenodd" clip-rule="evenodd" d="M51.3346 18.9153C51.3346 26.1908 46.8084 32.748 36.777 41.959C26.7456 32.748 22.2195 26.1908 22.2195 18.9153C22.2195 11.2577 28.6234 4.84704 36.777 4.84704C44.9306 4.84704 51.3346 11.2577 51.3346 18.9153ZM56.1871 18.9153C56.1871 29.1708 49.1722 37.52 37.438 47.8885C37.062 48.2209 36.4921 48.2209 36.116 47.8885C24.3818 37.52 17.3669 29.1708 17.3669 18.9153C17.3669 8.46866 26.0571 0 36.777 0C47.4969 0 56.1871 8.46866 56.1871 18.9153ZM41.6295 19.3882C41.6295 22.0651 39.457 24.2352 36.777 24.2352C34.097 24.2352 31.9245 22.0651 31.9245 19.3882C31.9245 16.7112 34.097 14.5411 36.777 14.5411C39.457 14.5411 41.6295 16.7112 41.6295 19.3882ZM46.4821 19.3882C46.4821 24.7421 42.137 29.0823 36.777 29.0823C31.4171 29.0823 27.072 24.7421 27.072 19.3882C27.072 14.0343 31.4171 9.69409 36.777 9.69409C42.137 9.69409 46.4821 14.0343 46.4821 19.3882Z" fill="#A9BCD3"/>
</svg>
