<svg width="71" height="75" viewBox="0 0 71 75" fill="none" xmlns="http://www.w3.org/2000/svg">
<path d="M50.0578 51.2014L36.7772 71.9861" stroke="white" stroke-width="4" stroke-linecap="round"/>
<path d="M34.2231 45.1181L21.4533 64.8889" stroke="white" stroke-width="4" stroke-linecap="round"/>
<path d="M3.38471 68.0153L15.453 50.2425C15.7004 49.8781 16.0612 49.6055 16.4794 49.4672L33.4272 43.8605C33.9363 43.6921 34.4917 43.7351 34.9687 43.98L48.2327 50.789C48.7434 51.0512 49.3421 51.0812 49.8766 50.8715L65.1975 44.86C67.0081 44.1496 68.6647 46.1798 67.6055 47.811L56.5368 64.8571C56.3094 65.2074 55.9779 65.4777 55.589 65.6301L37.6171 72.6708C37.083 72.8801 36.4846 72.8499 35.9742 72.5879L22.7242 65.7861C22.2387 65.5368 21.6723 65.4968 21.1565 65.6754L5.69363 71.0288C3.87497 71.6584 2.30357 69.6075 3.38471 68.0153Z" stroke="white" stroke-width="4"/>
<path fill-rule="evenodd" clip-rule="evenodd" d="M51.3343 18.9153C51.3343 26.1908 46.8082 32.748 36.7768 41.959C26.7453 32.748 22.2192 26.1908 22.2192 18.9153C22.2192 11.2577 28.6232 4.84704 36.7768 4.84704C44.9303 4.84704 51.3343 11.2577 51.3343 18.9153ZM56.1868 18.9153C56.1868 29.1708 49.172 37.52 37.4378 47.8885C37.0617 48.2209 36.4918 48.2209 36.1157 47.8885C24.3815 37.52 17.3667 29.1708 17.3667 18.9153C17.3667 8.46866 26.0569 0 36.7768 0C47.4967 0 56.1868 8.46866 56.1868 18.9153ZM41.6293 19.3882C41.6293 22.0651 39.4567 24.2352 36.7768 24.2352C34.0968 24.2352 31.9243 22.0651 31.9243 19.3882C31.9243 16.7112 34.0968 14.5411 36.7768 14.5411C39.4567 14.5411 41.6293 16.7112 41.6293 19.3882ZM46.4818 19.3882C46.4818 24.7421 42.1367 29.0823 36.7768 29.0823C31.4168 29.0823 27.0717 24.7421 27.0717 19.3882C27.0717 14.0343 31.4168 9.69409 36.7768 9.69409C42.1367 9.69409 46.4818 14.0343 46.4818 19.3882Z" fill="white"/>
</svg>
