<svg width="52" height="52" viewBox="0 0 52 52" fill="none" xmlns="http://www.w3.org/2000/svg">
<path d="M7.92093 20.5895C7.92093 11.2581 14.7839 3.52836 23.7413 2.16505C22.8179 2.02443 21.8721 1.95154 20.9093 1.95154C10.6079 1.95154 2.25684 10.2961 2.25684 20.5896C2.25684 30.8831 10.6079 39.2277 20.9093 39.2277C21.8721 39.2277 22.8179 39.1547 23.7413 39.0141C14.784 37.6507 7.92093 29.921 7.92093 20.5895Z" fill="#FF961C"/>
<path d="M20.6056 41.1794C9.24361 41.1794 0 31.9429 0 20.5897C0 9.23648 9.24361 0 20.6056 0C31.9676 0 41.2112 9.23648 41.2112 20.5897C41.2112 31.9429 31.9676 41.1794 20.6056 41.1794ZM20.6056 3.90326C11.3975 3.90326 3.90627 11.3887 3.90627 20.5897C3.90627 29.7907 11.3975 37.2761 20.6056 37.2761C29.8136 37.2761 37.3049 29.7907 37.3049 20.5897C37.3049 11.3887 29.8136 3.90326 20.6056 3.90326Z" fill="white"/>
<path d="M49.5662 51.8421C48.9837 51.8421 48.4012 51.62 47.9567 51.1756L37.7718 40.9907C36.883 40.1018 36.883 38.6607 37.7718 37.7719C38.6607 36.8831 40.1018 36.8831 40.9906 37.7719L51.1755 47.9568C52.0643 48.8457 52.0643 50.2869 51.1755 51.1756C50.7311 51.6199 50.1486 51.8421 49.5662 51.8421Z" fill="white"/>
</svg>
