<svg width="47" height="83" viewBox="0 0 47 83" fill="none" xmlns="http://www.w3.org/2000/svg">
<line x1="21" y1="39" x2="21" y2="75" stroke="white" stroke-width="4"/>
<path d="M38 55L26 55" stroke="white" stroke-width="4" stroke-linecap="round"/>
<line x1="45" y1="77" x2="23" y2="77" stroke="white" stroke-width="4" stroke-linecap="round"/>
<path d="M27 55C27 58.3137 24.3137 61 21 61C17.6863 61 15 58.3137 15 55C15 51.6863 17.6863 49 21 49C24.3137 49 27 51.6863 27 55Z" fill="white"/>
<path d="M27 76.5C27 79.8137 24.3137 82.5 21 82.5C17.6863 82.5 15 79.8137 15 76.5C15 73.1863 17.6863 70.5 21 70.5C24.3137 70.5 27 73.1863 27 76.5Z" fill="white"/>
<path fill-rule="evenodd" clip-rule="evenodd" d="M37.3333 21C37.3333 30.0207 30.0207 37.3333 21 37.3333C11.9793 37.3333 4.66667 30.0207 4.66667 21C4.66667 11.9793 11.9793 4.66667 21 4.66667C30.0207 4.66667 37.3333 11.9793 37.3333 21ZM42 21C42 32.598 32.598 42 21 42C9.40202 42 0 32.598 0 21C0 9.40202 9.40202 0 21 0C32.598 0 42 9.40202 42 21ZM23.3333 11.6667C23.3333 10.378 22.2887 9.33333 21 9.33333C19.7113 9.33333 18.6667 10.378 18.6667 11.6667V22.1667C18.6667 24.0997 20.2337 25.6667 22.1667 25.6667H30.3333C31.622 25.6667 32.6667 24.622 32.6667 23.3333C32.6667 22.0447 31.622 21 30.3333 21H23.3333V11.6667Z" fill="white"/>
</svg>
